<?xml version="1.0" encoding="iso-8859-1"?>
<!-- Uploaded to: SVG Repo, www.svgrepo.com, Generator: SVG Repo Mixer Tools -->
<svg height="800px" width="800px" version="1.1" id="Layer_1" xmlns="http://www.w3.org/2000/svg" xmlns:xlink="http://www.w3.org/1999/xlink" 
	 viewBox="0 0 512.001 512.001" xml:space="preserve">
<circle style="fill:#BBBBBB;" cx="106.141" cy="320.375" r="53.076"/>
<g>
	<path style="fill:#333333;" d="M103.792,496.105L53.072,385.24c0,0-53.072,1.16-53.072,49.536v61.328H103.792z"/>
	<path style="fill:#333333;" d="M108.504,496.105L159.2,385.24c0,0,53.072,1.176,53.072,49.536v61.328H108.504z"/>
</g>
<polygon style="fill:#E21B1B;" points="69.056,385.24 106.144,467.8 143.241,385.24 "/>
<circle style="fill:#BBBBBB;" cx="405.853" cy="320.375" r="53.076"/>
<g>
	<path style="fill:#333333;" d="M403.496,496.105L352.8,385.24c0,0-53.072,1.176-53.072,49.536v61.328H403.496z"/>
	<path style="fill:#333333;" d="M408.209,496.105l50.712-110.865c0,0,53.08,1.16,53.08,49.536v61.328H408.209z"/>
</g>
<polygon style="fill:#E21B1B;" points="368.76,385.24 405.857,467.8 442.944,385.24 "/>
<polygon points="59.216,214.52 44.624,195.48 192.344,82.312 265.816,161.704 413.505,48.224 428.128,67.256 263.064,194.08 
	189.577,114.656 "/>
<polygon style="fill:#E21B1B;" points="465.048,15.896 391.569,32.552 442.728,87.856 "/>
</svg>