<?xml version="1.0" encoding="utf-8"?>
<!-- Generator: Adobe Illustrator 25.0.1, SVG Export Plug-In . SVG Version: 6.00 Build 0)  -->
<svg version="1.1" id="Layer_1" xmlns="http://www.w3.org/2000/svg" xmlns:xlink="http://www.w3.org/1999/xlink" x="0px" y="0px"
	 viewBox="0 0 432 432" style="enable-background:new 0 0 432 432;" xml:space="preserve">
<style type="text/css">
	.st0{fill:#FFFFFF;}
	.st1{fill:#006838;}
	.st2{fill:#ED1C24;}
	.st3{fill:#FBB040;}
	.st4{fill:#00A651;}
</style>
<rect x="-3" y="-3" class="st0" width="438" height="438"/>
<g>
	<g>
		<g>
			<path d="M106.3,192.4c3.1,2.1,5,5.1,5.8,8.8l-10,2c-0.4-1.9-1.2-3.3-2.6-4.3s-2.9-1.5-4.6-1.5c-1.6,0-3,0.4-4,1.2
				c-1,0.8-1.5,1.8-1.5,3c0,1.8,1.1,3,3.3,3.5l8.6,1.9c7.6,1.7,11.4,5.7,11.4,12.1c0,4.2-1.6,7.5-4.9,9.9s-7.3,3.5-12.2,3.5
				c-4.8,0-8.9-1.1-12.3-3.3c-3.4-2.2-5.3-5.3-5.8-9.3l10.5-2c1,4.1,3.7,6.1,8.2,6.1c1.9,0,3.4-0.4,4.5-1.2c1.1-0.8,1.6-1.8,1.6-3.1
				c0-1-0.3-1.8-0.8-2.4c-0.6-0.6-1.6-1-3-1.3l-8.7-1.9c-7.4-1.7-11.1-5.7-11.1-12c0-4,1.5-7.2,4.5-9.5c3-2.4,7-3.5,11.9-3.5
				C99.4,189.2,103.2,190.2,106.3,192.4z"/>
			<path d="M148.9,231.6L146,224h-17.4l-2.9,7.5h-11l17.3-41.5h10.5l17.3,41.5H148.9z M137.3,201.6l-5.3,13.6h10.6L137.3,201.6z"/>
			<path d="M181.9,231.6h-9.8l-17.6-41.5h11.3l11.3,27.5l11.3-27.5h11.3L181.9,231.6z"/>
			<path d="M227.9,231.6h-9.8l-17.6-41.5h11.3l11.3,27.5l11.3-27.5h11.3L227.9,231.6z"/>
			<path d="M272.8,231.6h-10.4v-12.9l-16-28.6h11.1l10.2,18.2l10.1-18.2h11.4l-16.4,28.5V231.6z"/>
		</g>
		<g>
			<path d="M82.8,255.8v-13.1h2.1v13.1H82.8z"/>
			<path d="M111.5,255.8h-1.8l-7.9-9.4v9.4h-2.1v-13.1h1.8l7.9,9.6v-9.6h2.1V255.8z"/>
			<path d="M126.4,255.8v-13.1h2.1v13.1H126.4z"/>
			<path d="M149,244.5v11.2h-2.1v-11.2h-4.6v-1.9h11.3v1.9H149z"/>
			<path d="M167.3,255.8v-13.1h2.1v13.1H167.3z"/>
			<path d="M194.1,255.8l-1.3-3.1h-6.4l-1.3,3.1h-2.3l5.8-13.1h2l5.8,13.1H194.1z M189.6,245.2l-2.4,5.6h4.7L189.6,245.2z"/>
			<path d="M214.2,244.5v11.2h-2.1v-11.2h-4.6v-1.9h11.3v1.9H214.2z"/>
			<path d="M232.6,255.8v-13.1h2.1v13.1H232.6z"/>
			<path d="M256,255.8h-2l-5.7-13.1h2.3l4.4,10.3l4.4-10.3h2.3L256,255.8z"/>
			<path d="M285,255.8h-9.8v-13.1h9.8v1.9h-7.7v3.7h7.1v1.9h-7.1v3.7h7.7V255.8z"/>
		</g>
	</g>
	<g>
		<path d="M326.3,255.8c-0.6,0-1.3,0-1.9,0c-1.2-0.1-2.1-0.8-2.6-1.9c-0.7-1.7-0.3-2.4,1.6-2.4c2.2,0,4.4,0,6.6,0
			c1.1,0,1.3,0.5,1.2,1.4c-0.3,1.8-1.4,2.9-3.3,2.9C327.4,255.8,326.8,255.8,326.3,255.8C326.3,255.8,326.3,255.8,326.3,255.8z"/>
		<path d="M338.3,243.8h-23.9c-0.9,0-1.6-0.7-1.6-1.6v-0.3c0-0.9,0.7-1.6,1.6-1.6h23.9c0.9,0,1.6,0.7,1.6,1.6v0.3
			C339.9,243.1,339.2,243.8,338.3,243.8z"/>
		<path d="M335.7,249.6h-18.9c-0.8,0-1.4-0.6-1.4-1.4v-0.7c0-0.8,0.6-1.4,1.4-1.4h18.9c0.8,0,1.4,0.6,1.4,1.4v0.7
			C337.2,249,336.5,249.6,335.7,249.6z"/>
		<path d="M312.7,225c2.1,2.4,2.9,5.9,3.3,10.3h-2.3c-0.6-4.3-1.5-7.8-4.1-10.2c-1.3-1.2-2.4-2.3-3.5-3.5
			c-6.5-5.3-10.5-13-10.5-21.7c0-7.9,3.4-15.1,8.9-20.3c0,0,0,0,0,0c2.9-2.7,6.4-4.9,10.3-6.4c0,0,0,0,0,0c1.1-0.4,2.2-0.7,3.3-1
			c-0.4,0.2-0.8,0.3-1.2,0.5c0,0,0,0,0,0c-3.2,1.5-6,3.7-8.4,6.5c0,0,0,0,0,0c-4.5,5.2-7.3,12.5-7.3,20.4c0,8.7,3.3,16.5,8.6,21.9
			C310.7,222.7,311.6,223.8,312.7,225z"/>
		<path d="M357,200c0,8.4-3.9,16-10,21.3c0,0,0,0,0,0c-1.2,1.3-2.5,2.6-4,4c-2.6,2.4-3.5,5.9-4.1,10.2h-2.3
			c0.5-4.3,1.2-7.9,3.3-10.3c1.2-1.3,2.3-2.7,3.3-4l0,0c5-5.3,8.2-13,8.2-21.5c0-8.6-3.2-16.3-8.3-21.6c-1.7-1.7-3.5-3.2-5.5-4.4
			c-1-0.6-2.1-1.1-3.2-1.5c2,0.5,3.9,1.2,5.7,2c2.5,1.2,4.7,2.6,6.7,4.3C353.1,183.8,357,191.5,357,200z"/>
		<path d="M341.2,237.9h-29.7c-1,0-1.8-0.8-1.8-1.8l0,0c0-1,0.8-1.8,1.8-1.8h29.7c1,0,1.8,0.8,1.8,1.8l0,0
			C342.9,237.1,342.1,237.9,341.2,237.9z"/>
		<rect x="324.3" y="217.5" width="4" height="18.6"/>
		<g>
			<path d="M343,216.6c-0.1-0.1-0.1-0.2-0.2-0.3c0,0-0.1,0.1-0.1,0.1c0.1,1-0.3,1.8-0.6,2.7c-0.2,0.6-0.4,1.2-0.6,1.9
				c-0.1,0.4-0.3,0.9-0.4,1.3c0,0,0,0.1,0,0.1c-0.1,0.3-1,0.6-1.3,0.5c-0.6-0.2-0.6-0.6-0.6-1.1c0-0.1,0-0.3-0.1-0.4
				c-0.2-0.5-0.2-0.9,0.2-1.3c0.4-0.4,0.6-1,0.3-1.6c-0.1-0.1-0.1-0.3-0.1-0.4c-0.1-0.2,0-0.4,0.1-0.6c0.1-0.2,0.2-0.4,0.2-0.5
				c0.5-0.2,0.9-0.4,1.3-0.6c0.5-0.2,0.7-0.6,0.7-1.1c0.3,0,0.5-0.2,0.5-0.5c0-0.1,0.1-0.3,0.1-0.5h0.1c0.1,0.1,0.2,0.3,0.2,0.4
				c0.1,0.4,0.2,0.7,0.2,1c0,0.1,0,0.3,0.1,0.4C343.2,216.2,343.2,216.4,343,216.6z"/>
			<path class="st1" d="M332.3,204.2c-4.6-1.1-9-0.3-12.2,0.8c-0.1,0.4-0.1,0.7-0.2,1.1c0,0.2-0.1,0.4-0.2,0.5
				c-0.2,0.1-0.1,0.3-0.1,0.4c0.2,0.5,0.5,0.9,0.8,1.3c0.4,0.4,0.8,0.8,1,1.4c0.1,0.6,0.4,1.1,0.6,1.6c0.1,0.2,0.1,0.4,0,0.6
				c0,0-0.1,0.1,0,0.2c0.1,0.3,0.1,0.5,0.3,0.8c0.1,0.1,0.1,0.2,0.1,0.3c5.3-2.7,10.8-3,14.4-2.8c-0.2-0.2-0.1-0.3,0-0.6
				c0.2-0.6,0.5-1.1,0.7-1.7c0-0.1,0.1-0.1,0.1-0.1c0.2-0.2,0.5-0.4,0.7-0.7c0.1-0.1,0.1-0.2,0.2-0.3
				C336.6,205.7,334.5,204.8,332.3,204.2z"/>
			<path class="st2" d="M343.6,198.6c-0.1,0-0.3,0.1-0.4,0.1c-0.2,0.1-0.5,0.2-0.7,0.3c-0.4,0.1-0.9,0-1.3,0.3c0,0-0.1,0-0.1,0
				c-0.3-0.1-0.5,0.1-0.7,0.1c-0.1,0-0.3,0.1-0.4,0c-0.3-0.2-0.5-0.5-0.7-0.7c0.3-0.2,0.3-0.4,0.1-0.7c-0.3-0.3-0.5-0.5-0.8-0.8
				c-0.1-0.1-0.1-0.2-0.2-0.3c0-0.1-0.1-0.1-0.1-0.2c-0.9-0.3-1.1-0.8-1.2-1.5c0-0.3-0.1-0.5-0.3-0.7c-4.7-0.5-9.8,0.4-15.1,2.6
				c-4.5,1.8-8.3,4.3-10.9,6.2c0.2,0,0.4-0.1,0.5-0.2c0.6-0.4,1.3-0.4,2.1-0.1c0.3,0.1,0.5,0.1,0.8-0.1c0.4-0.2,0.8-0.3,1.2-0.5
				c0,0,0.1,0,0.1,0c0.4-0.4,0.9-0.3,1.3-0.4c0.7,0,0.9,0.1,1.1,0.8c0.2,0.5,0.5,0.6,1,0.5c0.2-0.1,0.5-0.1,0.8-0.1
				c0.3,0,0.3,0.2,0.4,0.3c3.3-1.1,7.9-2,12.8-0.8c2.4,0.6,4.7,1.6,6.8,3c0.4-0.4,0.7-0.7,1.2-1c0.1,0,0.1-0.1,0.2-0.1
				c1-1,1.6-2.2,2.2-3.4c0.1-0.2,0.2-0.4,0.3-0.6c0.3-0.6,0.4-1.2,0.4-1.8C343.6,198.9,343.6,198.7,343.6,198.6z"/>
			<path class="st3" d="M335.1,191.8c-0.2-0.1-0.3-0.4-0.4-0.7c-0.1-0.1-0.1-0.3-0.1-0.4c-0.3-0.6-0.5-1.1-0.8-1.7
				c-0.1-0.2-0.2-0.4-0.3-0.6c-0.2-0.4-0.4-0.7-0.7-1.1c0.1,0,0.1-0.1,0.1-0.1c0.4,0.5,0.4,1.2,1.2,1.3c0.1-0.4,0.1-0.8,0.3-1.1
				c0.2-0.3,0.1-0.5,0-0.7c0-0.1-0.1-0.1-0.1-0.2c-0.1-0.4-0.2-0.4-0.6-0.3c-0.4,0.1-0.8,0-1.1,0.1c0,0-0.1,0-0.1,0
				c-0.2-0.3-0.5-0.2-0.8-0.1c-0.1,0.1-0.3,0.1-0.5,0.2c-0.3,0.1-0.5,0.1-0.8,0c-0.5-0.2-1-0.4-1.6-0.4c-0.1,0-0.2-0.1-0.3-0.1
				c-0.1-0.1-0.1-0.1-0.2-0.1c-0.3-0.1-0.5,0-0.6-0.4c0-0.1-0.1-0.1-0.2-0.1c-0.2,0-0.4-0.1-0.6,0c-0.6,0.1-0.9,0.5-0.8,1.1
				c0,0.1-0.1,0.3-0.1,0.4c-0.2,0.1-0.4,0.2-0.5,0.1c-0.4-0.3-0.9-0.5-1.4-0.5c0,0-0.1,0-0.1,0c-0.2,0.1-0.5,0.2-0.7,0.3
				c-7.3,3.3-12.5,8.3-15.6,15.1c0.1,0,0.1,0.1,0.2,0.1c0.1,0,0.2,0.1,0.3,0.2c0.3,0.3,0.6,0.6,1,0.8c2.7-2,6.8-4.7,11.7-6.8
				c5.3-2.2,10.3-3,15.1-2.7C335.8,192.7,335.6,192.2,335.1,191.8z"/>
			<path class="st4" d="M322.2,185.1c-0.1,0-0.2-0.1-0.3,0c-0.2,0.1-0.4,0-0.6-0.1c-0.2-0.1-0.4-0.3-0.7-0.4
				c0.1-0.1,0.2-0.2,0.3-0.3c0.3-0.3,0.4-0.7,0.1-0.9c-0.2-0.1-0.1-0.2,0-0.4c0.1-0.1,0.2-0.2,0.2-0.4c0,0-0.1,0-0.1-0.1
				c-0.1,0.1-0.2,0.1-0.3,0.2c-0.2-0.4-0.3-0.5-0.7-0.3c-0.2,0.1-0.4,0.2-0.6,0.1c-0.4,0-0.7,0-1.1,0.1c-0.2,0-0.4,0-0.6,0
				c-0.2,0-0.4,0-0.6,0c-0.4,0-0.7,0.2-1.1,0.1c-0.7-0.1-1.3,0.3-1.8,0.6c-0.3,0.2-0.6,0.3-1,0.2c-0.2-0.1-0.5,0-0.7,0
				c-0.2,0-0.4,0.1-0.6-0.1c-0.3-0.2-0.4-0.2-0.6,0.1c-0.2,0.5-0.4,1-1,1.1c-0.6,0.2-1.1,1.4-0.9,1.8c0.1,0.2,0,0.4-0.1,0.6
				c-0.1,0.1-0.2,0.2-0.3,0.3c-0.4,0.3-0.7,0.7-1.2,0.7c-0.1,0-0.2,0.1-0.2,0.2c-0.2,0.3-0.3,0.7-0.7,0.9c-0.1,0.1-0.2,0.2-0.2,0.4
				c-0.1,0.2-0.1,0.4-0.2,0.7c-0.3,0.6-0.7,1.1-1,1.7c-0.2,0.3-0.3,0.6-0.1,0.9c0.2,0.3,0.4,0.6,0.2,0.9c0,0,0,0.1,0,0.1
				c0.3,1,0,1.8-0.5,2.6c-0.1,0.1-0.1,0.2-0.1,0.3c0.2,0.4,0.2,0.9,0.2,1.3c0,0.1,0.1,0.2,0.2,0.3c0.2,0.2,0.5,0.5,0.7,0.7
				c0.2,0.2,0.3,0.4,0.5,0.6c0.1,0.1,0.2,0.1,0.2,0.2c4-8,10.5-12.4,15.8-14.8C322.5,185.2,322.3,185.1,322.2,185.1z"/>
			<path d="M337.7,215.3v-2c0-0.2-0.3-0.8-0.4-1.5c-3.8-0.3-9.9,0-15.5,3.4c-0.1,0.3-0.2,0.6-0.2,0.9c-0.2,0.8-0.4,1.7,0.2,2.5
				c0.4,0.6,0.6,1.2,0.9,1.9c0.1,0.1,0.1,0.3,0.2,0.5c0.1,0.5,0.1,1,0.1,1.5c0.1,0.7,0.1,1.4,0.7,2c0.6,0.7,0.7,1.6,1.2,2.4
				c0.1,0.1,0.2,0.4-0.2,0.5c0,0,0,0.1,0,0.2c0.2,0.2,0.4,0.5,0.5,0.7c0.1,0.1,0.2,0.2,0.3,0.3c0.1,0.1,0.3,0,0.4,0
				c0.5-0.1,0.9-0.3,1.4-0.4c0,0,0.1,0,0.1,0c0.4,0,0.8,0.2,1.3,0c0.2-0.1,0.6-0.1,0.8-0.2c0,0,0.1,0,0.1,0c0.7-0.4,1.3-1,1.8-1.6
				c0.4-0.5,0.6-1.2,1.3-1.6c0.1-0.5,0.4-1,0.4-1.5c0-0.5,0-0.5,0.4-0.7c0.1,0,0.2-0.1,0.3-0.1c0.3-0.1,0.7-0.2,0.8-0.6
				c0.1-0.3,0.1-0.7,0-1c-0.1-0.4-0.2-0.7-0.3-1.1c0-0.2,0-0.5,0.1-0.6c0.4-0.4,0.8-0.9,1.2-1.3c0.3-0.2,0.7-0.4,1-0.6
				c0.5-0.3,0.9-0.7,1.1-1.3C337.7,215.7,337.7,215.5,337.7,215.3z"/>
		</g>
	</g>
</g>
</svg>
