<svg id="Layer_1" data-name="Layer 1" xmlns="http://www.w3.org/2000/svg" viewBox="0 0 432 432"><defs><style>.cls-1{fill:#fff;}.cls-2{fill:#231f20;}.cls-3{fill:#006838;}.cls-4{fill:#ed1c24;}.cls-5{fill:#fbb040;}.cls-6{fill:#00a651;}</style></defs><rect class="cls-1" x="-2.99" y="-2.99" width="437.98" height="437.98"/><path class="cls-2" d="M127.51,202.92a18.63,18.63,0,0,1,7.8,12l-13.59,2.77a9.15,9.15,0,0,0-3.52-5.83,10.29,10.29,0,0,0-6.29-2.06,8.59,8.59,0,0,0-5.45,1.64,5,5,0,0,0-2.1,4.07q0,3.69,4.53,4.7l11.66,2.6Q136,226.2,136,239.11q0,8.65-6.62,13.43t-16.53,4.78q-9.81,0-16.65-4.49a17.12,17.12,0,0,1-7.93-12.54l14.26-2.77q2,8.31,11.08,8.31a10.28,10.28,0,0,0,6.08-1.6,4.93,4.93,0,0,0,2.22-4.19,4.42,4.42,0,0,0-1.13-3.19,7.82,7.82,0,0,0-4.07-1.76L105,232.57q-15.11-3.44-15.1-16.27A15.53,15.53,0,0,1,96,203.38q6.12-4.78,16.11-4.78Q121.31,198.6,127.51,202.92Z"/><path class="cls-2" d="M144.2,256.06v-56.2H158v56.2Z"/><path class="cls-2" d="M202.58,256.06l-17-19.29h-4v19.29H167.77v-56.2H196.2q9.15,0,14.68,5.07a17.18,17.18,0,0,1,5.54,13.3,17.57,17.57,0,0,1-3.94,11.62,18.84,18.84,0,0,1-10.82,6.24l17.61,20Zm-7.89-30.87a8.93,8.93,0,0,0,5.92-1.85,6.1,6.1,0,0,0,2.22-4.94,6,6,0,0,0-2.22-4.87,9,9,0,0,0-5.92-1.85H181.61v13.51Z"/><path class="cls-2" d="M266.83,256.06l-3.94-10.23H239.23l-3.94,10.23H220.44l23.49-56.2H258.1l23.49,56.2Zm-15.77-40.6-7.13,18.45h14.34Z"/><path class="cls-2" d="M311,269.8c-.68,0-1.36,0-2,0a3.12,3.12,0,0,1-2.74-2c-.8-1.81-.29-2.6,1.65-2.61,2.35,0,4.7,0,7.05,0,1.19,0,1.43.51,1.27,1.54a3.39,3.39,0,0,1-3.47,3.14c-.57,0-1.15,0-1.72,0Z"/><rect class="cls-2" x="296.55" y="253.26" width="28.94" height="3.81" rx="1.72"/><rect class="cls-2" x="299.41" y="259.4" width="23.22" height="3.81" rx="1.54"/><path class="cls-2" d="M296.46,237c2.25,2.55,3.05,6.35,3.56,11h-2.43c-.6-4.59-1.6-8.34-4.34-10.89-1.36-1.24-2.61-2.49-3.74-3.7a29.48,29.48,0,0,1-1.76-44.78s0,0,0,0a33.35,33.35,0,0,1,11-6.85l0,0a31.8,31.8,0,0,1,3.55-1.1c-.45.18-.9.35-1.33.56a0,0,0,0,0,0,0,26.68,26.68,0,0,0-9,6.92h0a34.39,34.39,0,0,0,1.43,45.16C294.32,234.47,295.34,235.72,296.46,237Z"/><path class="cls-2" d="M343.75,210.21A29.86,29.86,0,0,1,333,233a0,0,0,0,1,0,0c-1.26,1.37-2.68,2.79-4.23,4.23-2.75,2.53-3.74,6.3-4.35,10.87H322c.51-4.6,1.31-8.41,3.57-11,1.27-1.44,2.44-2.88,3.48-4.27l0,0a34.32,34.32,0,0,0-.1-45.94,26.79,26.79,0,0,0-5.9-4.67,22.9,22.9,0,0,0-3.42-1.65,32.53,32.53,0,0,1,6.08,2.18,32.14,32.14,0,0,1,7.19,4.63A29.87,29.87,0,0,1,343.75,210.21Z"/><rect class="cls-2" x="293.28" y="246.94" width="35.48" height="3.81" rx="1.9"/><rect class="cls-2" x="308.88" y="228.99" width="4.27" height="19.9"/><path class="cls-2" d="M328.78,227.94a2.86,2.86,0,0,1-.22-.3l-.08.06a6.47,6.47,0,0,1-.68,2.86c-.24.66-.46,1.32-.68,2-.16.46-.28.92-.42,1.38,0,0,0,.06,0,.08-.12.3-1.11.6-1.41.5-.6-.2-.66-.66-.66-1.18a1.29,1.29,0,0,0-.06-.4,1.25,1.25,0,0,1,.2-1.37,1.6,1.6,0,0,0,.36-1.7c-.06-.16-.06-.34-.12-.48a.77.77,0,0,1,.12-.66,2.89,2.89,0,0,0,.24-.52c.52-.24,1-.46,1.41-.68a1.25,1.25,0,0,0,.76-1.17.54.54,0,0,0,.58-.52,2.87,2.87,0,0,1,.16-.5h.14a2.25,2.25,0,0,1,.24.42c.1.38.18.76.26,1.12a3.55,3.55,0,0,0,.08.47A.51.51,0,0,1,328.78,227.94Z"/><path class="cls-3" d="M317.42,214.77a23.47,23.47,0,0,0-13,.88c-.06.38-.12.78-.2,1.16,0,.17-.06.43-.18.53s-.12.28-.08.44a4.14,4.14,0,0,0,.9,1.36,3.61,3.61,0,0,1,1,1.54,12.23,12.23,0,0,0,.62,1.73c.1.26.16.44,0,.68a.23.23,0,0,0,0,.2,5.66,5.66,0,0,0,.28.82,1.54,1.54,0,0,1,.12.3,30.53,30.53,0,0,1,15.41-3c-.18-.2-.16-.34,0-.68.24-.6.5-1.18.74-1.78a1.14,1.14,0,0,1,.14-.16,4.55,4.55,0,0,0,.76-.76c.06-.08.12-.18.2-.28A21.12,21.12,0,0,0,317.42,214.77Z"/><path class="cls-4" d="M329.42,208.76a4.34,4.34,0,0,0-.48.14,5.83,5.83,0,0,1-.76.28,2.83,2.83,0,0,0-1.44.34.21.21,0,0,1-.16,0c-.29-.1-.53.08-.79.16a.6.6,0,0,1-.46,0,9.08,9.08,0,0,1-.76-.76c.36-.26.28-.48.06-.7l-.86-.86-.24-.32c0-.06-.1-.16-.16-.18a1.53,1.53,0,0,1-1.24-1.59,1.1,1.1,0,0,0-.28-.74,33.48,33.48,0,0,0-16.14,2.73,54.27,54.27,0,0,0-11.62,6.65,1.23,1.23,0,0,0,.58-.22,2.47,2.47,0,0,1,2.19-.14,1,1,0,0,0,.88-.06,10.52,10.52,0,0,1,1.32-.5.12.12,0,0,0,.08,0,1.89,1.89,0,0,1,1.41-.38c.76,0,.94.1,1.22.84a.72.72,0,0,0,1,.52,5.4,5.4,0,0,1,.82-.14c.28,0,.34.2.42.36a24.7,24.7,0,0,1,13.71-.84,21.82,21.82,0,0,1,7.23,3.2,5.51,5.51,0,0,1,1.3-1,1,1,0,0,0,.17-.14,10.09,10.09,0,0,0,2.3-3.65,5.7,5.7,0,0,1,.32-.6,5.28,5.28,0,0,0,.44-1.92A1.6,1.6,0,0,0,329.42,208.76Z"/><path class="cls-5" d="M320.4,201.48a1.93,1.93,0,0,1-.4-.72c-.06-.14-.08-.32-.14-.46-.3-.6-.58-1.2-.88-1.78a6,6,0,0,0-.32-.62c-.24-.4-.48-.8-.72-1.18a.85.85,0,0,0,.14-.1c.4.5.46,1.3,1.26,1.42a5.41,5.41,0,0,1,.36-1.18.79.79,0,0,0,0-.79,1.22,1.22,0,0,1-.1-.24c-.14-.38-.2-.38-.62-.32s-.82,0-1.22.06a.15.15,0,0,1-.1,0c-.26-.3-.54-.2-.84-.08a4,4,0,0,1-.52.18.93.93,0,0,1-.83,0,3.33,3.33,0,0,0-1.74-.4c-.1,0-.22-.1-.3-.14s-.14-.14-.22-.14c-.28-.06-.58,0-.66-.4,0-.06-.16-.12-.24-.14a2.16,2.16,0,0,0-.62,0,.88.88,0,0,0-.85,1.18.49.49,0,0,1-.16.4c-.18.1-.46.22-.58.14a2.62,2.62,0,0,0-1.52-.56l-.16,0-.76.34A32.14,32.14,0,0,0,291,211.93a.74.74,0,0,0,.22.1.84.84,0,0,1,.32.22c.34.28.68.6,1,.88a57.84,57.84,0,0,1,12.5-7.22,35.16,35.16,0,0,1,16.1-2.88A1.88,1.88,0,0,0,320.4,201.48Z"/><path class="cls-6" d="M306.64,194.35a.75.75,0,0,0-.36,0,.6.6,0,0,1-.63-.16c-.22-.16-.46-.3-.72-.48l.3-.28c.34-.34.38-.8.08-1s-.16-.24,0-.4a4.28,4.28,0,0,0,.26-.38l-.08-.06a3.24,3.24,0,0,0-.36.2c-.18-.46-.34-.5-.76-.3a1.27,1.27,0,0,1-.64.16,2.73,2.73,0,0,0-1.14.08,3,3,0,0,1-.6,0c-.22,0-.46,0-.68,0a4.81,4.81,0,0,1-1.15.14,3.3,3.3,0,0,0-2,.6,1.38,1.38,0,0,1-1,.24,1.85,1.85,0,0,0-.74,0,.65.65,0,0,1-.6-.1c-.27-.26-.45-.18-.59.16a1.69,1.69,0,0,1-1.12,1.2,1.93,1.93,0,0,0-1,1.9.53.53,0,0,1-.14.59,1.8,1.8,0,0,1-.32.36c-.4.32-.74.76-1.32.78a.53.53,0,0,0-.26.22c-.2.34-.32.72-.71.92-.14.06-.2.26-.26.4a7.19,7.19,0,0,1-.24.7c-.36.6-.74,1.18-1.12,1.77a.76.76,0,0,0-.08.92c.2.3.4.62.18,1,0,0,0,.1,0,.16a3.3,3.3,0,0,1-.5,2.82c-.06.1-.1.25-.06.31a2.91,2.91,0,0,1,.22,1.42c0,.12.1.26.2.36.24.26.5.5.74.76s.34.42.52.62a1.6,1.6,0,0,1,.26.26A34.2,34.2,0,0,1,307,194.47Z"/><path class="cls-2" d="M323.13,226.61v-2.12c0-.18-.28-.9-.48-1.6a28.22,28.22,0,0,0-16.55,3.68,8.36,8.36,0,0,0-.26.91,3.08,3.08,0,0,0,.24,2.64,14.12,14.12,0,0,1,1,2,1.55,1.55,0,0,1,.18.51c.06.56.1,1.1.16,1.64a3.41,3.41,0,0,0,.7,2.16c.66.72.76,1.73,1.26,2.55.1.16.2.46-.18.56a.23.23,0,0,0,0,.2c.2.26.38.52.58.76s.18.24.28.34.3,0,.44,0l1.49-.42s.08,0,.12,0c.46,0,.9.22,1.36,0,.26-.14.6-.1.86-.26a.15.15,0,0,1,.08,0,7.13,7.13,0,0,0,1.95-1.72c.48-.56.68-1.29,1.34-1.71a9.75,9.75,0,0,0,.44-1.62c0-.5,0-.5.42-.72l.36-.12c.34-.16.76-.24.84-.68a4.05,4.05,0,0,0,0-1.1c-.06-.39-.22-.77-.28-1.15a.82.82,0,0,1,.1-.66,10.45,10.45,0,0,1,1.32-1.34,5.42,5.42,0,0,1,1.07-.62,2.23,2.23,0,0,0,1.14-1.38A1.77,1.77,0,0,0,323.13,226.61Z"/><path class="cls-2" d="M92.94,264a2.08,2.08,0,0,1,.84,1.34l-1,.21a1.27,1.27,0,0,0-.5-.83,1.55,1.55,0,0,0-1-.31,1.44,1.44,0,0,0-.92.27.85.85,0,0,0-.35.71.69.69,0,0,0,.2.54,1.24,1.24,0,0,0,.62.28l1.4.3c1.12.24,1.67.84,1.67,1.77a1.76,1.76,0,0,1-.68,1.45,2.85,2.85,0,0,1-1.81.54,3.14,3.14,0,0,1-1.82-.51,1.9,1.9,0,0,1-.86-1.42l1.1-.23a1.44,1.44,0,0,0,.56.92,1.9,1.9,0,0,0,1.12.32,1.58,1.58,0,0,0,1-.28.87.87,0,0,0,.36-.73.75.75,0,0,0-.2-.56,1.52,1.52,0,0,0-.71-.3l-1.41-.29c-1.09-.25-1.64-.84-1.64-1.77a1.71,1.71,0,0,1,.66-1.39,2.66,2.66,0,0,1,1.72-.53A2.73,2.73,0,0,1,92.94,264Z"/><path class="cls-2" d="M100,270.09l-.64-1.51H96.2l-.64,1.51H94.44l2.86-6.49h1l2.85,6.49Zm-2.22-5.22-1.17,2.76H99Z"/><path class="cls-2" d="M104.41,270.09h-1l-2.82-6.49h1.14l2.17,5.09,2.17-5.09h1.15Z"/><path class="cls-2" d="M111.31,270.09h-1l-2.82-6.49h1.14l2.18,5.09L113,263.6h1.15Z"/><path class="cls-2" d="M118.05,270.09h-1v-2.15l-2.62-4.34h1.15l2,3.26,2-3.26h1.19l-2.66,4.32Z"/><path class="cls-2" d="M124,270.09V263.6h1v6.49Z"/><path class="cls-2" d="M132.41,270.09h-.88l-3.93-4.66v4.66h-1V263.6h.88l3.91,4.74V263.6h1Z"/><path class="cls-2" d="M133.93,270.09V263.6h1v6.49Z"/><path class="cls-2" d="M139.28,264.54v5.55h-1.05v-5.55H136v-.94h5.61v.94Z"/><path class="cls-2" d="M142.55,270.09V263.6h1v6.49Z"/><path class="cls-2" d="M150,270.09l-.64-1.51h-3.16l-.64,1.51H144.4l2.86-6.49h1l2.86,6.49Zm-2.22-5.22-1.17,2.76h2.35Z"/><path class="cls-2" d="M154.1,264.54v5.55h-1v-5.55h-2.28v-.94h5.61v.94Z"/><path class="cls-2" d="M157.37,270.09V263.6h1v6.49Z"/><path class="cls-2" d="M163.12,270.09h-1l-2.82-6.49h1.15l2.17,5.09,2.17-5.09h1.15Z"/><path class="cls-2" d="M171.66,270.09h-4.83V263.6h4.82v.94h-3.79v1.83h3.5v.93h-3.5v1.85h3.8Z"/><path class="cls-2" d="M179.67,270.09l-2.32-2.58h-.94v2.58h-1V263.6h3.05a2.36,2.36,0,0,1,1.61.54,1.93,1.93,0,0,1,.06,2.78,2.31,2.31,0,0,1-1.49.58l2.35,2.59Zm-1.24-3.52a1.33,1.33,0,0,0,.86-.28.9.9,0,0,0,.33-.73.92.92,0,0,0-.33-.74,1.27,1.27,0,0,0-.86-.28h-2v2Z"/><path class="cls-2" d="M186.72,270.09h-4.84V263.6h4.83v.94h-3.79v1.83h3.5v.93h-3.5v1.85h3.8Z"/><path class="cls-2" d="M192.37,268.83a2.13,2.13,0,0,0,.79-1.22l1,.22a2.94,2.94,0,0,1-1.12,1.76,3.3,3.3,0,0,1-2,.64,3.39,3.39,0,0,1,0-6.77,3.35,3.35,0,0,1,2,.63,3,3,0,0,1,1.13,1.7l-1,.29a2.16,2.16,0,0,0-.79-1.22,2.36,2.36,0,0,0-3,.28,2.52,2.52,0,0,0,0,3.42,2.37,2.37,0,0,0,3,.27Z"/><path class="cls-2" d="M200.88,264.45a3.3,3.3,0,0,1,1,2.41,3.26,3.26,0,0,1-1,2.39,3.3,3.3,0,0,1-2.41,1,3.27,3.27,0,0,1-2.4-1,3.39,3.39,0,0,1,2.4-5.79A3.27,3.27,0,0,1,200.88,264.45Zm-.74,4.11a2.32,2.32,0,0,0,.67-1.7,2.35,2.35,0,0,0-.67-1.72,2.24,2.24,0,0,0-1.67-.7,2.2,2.2,0,0,0-1.66.7,2.35,2.35,0,0,0-.67,1.72,2.32,2.32,0,0,0,.67,1.7,2.23,2.23,0,0,0,1.66.69A2.26,2.26,0,0,0,200.14,268.56Z"/><path class="cls-2" d="M209.44,266.41c0,.23,0,.38,0,.45a3.3,3.3,0,0,1-.92,2.4,3.09,3.09,0,0,1-2.35,1,3.33,3.33,0,0,1-2.43-1,3.27,3.27,0,0,1-1-2.4,3.36,3.36,0,0,1,3.38-3.39,3.64,3.64,0,0,1,1.91.51,2.72,2.72,0,0,1,1.18,1.41l-.94.33a2.2,2.2,0,0,0-2.15-1.27,2.18,2.18,0,0,0-1.65.7,2.35,2.35,0,0,0-.68,1.71,2.36,2.36,0,0,0,2.39,2.4,2.17,2.17,0,0,0,2.22-1.89h-2.57v-.95Z"/><path class="cls-2" d="M216.53,270.09h-.88l-3.93-4.66v4.66h-1V263.6h.88l3.91,4.74V263.6h1.05Z"/><path class="cls-2" d="M218.06,270.09V263.6h1v6.49Z"/><path class="cls-2" d="M223.4,264.54v5.55h-1v-5.55h-2.28v-.94h5.61v.94Z"/><path class="cls-2" d="M226.67,270.09V263.6h1v6.49Z"/><path class="cls-2" d="M234.73,264.45a3.3,3.3,0,0,1,1,2.41,3.26,3.26,0,0,1-1,2.39,3.3,3.3,0,0,1-2.41,1,3.27,3.27,0,0,1-2.4-1,3.39,3.39,0,0,1,2.4-5.79A3.27,3.27,0,0,1,234.73,264.45Zm-.74,4.11a2.32,2.32,0,0,0,.67-1.7,2.35,2.35,0,0,0-.67-1.72,2.24,2.24,0,0,0-1.67-.7,2.2,2.2,0,0,0-1.66.7,2.35,2.35,0,0,0-.67,1.72,2.32,2.32,0,0,0,.67,1.7,2.23,2.23,0,0,0,1.66.69A2.26,2.26,0,0,0,234,268.56Z"/><path class="cls-2" d="M242.77,270.09h-.88L238,265.43v4.66h-1V263.6h.88l3.91,4.74V263.6h1.05Z"/><path class="cls-2" d="M251.53,270.09l-.64-1.51h-3.16l-.64,1.51H246l2.86-6.49h1l2.86,6.49Zm-2.22-5.22-1.17,2.76h2.34Z"/><path class="cls-2" d="M259.53,270.09h-1.1L257,265.27l-1.46,4.82H254.4l-1.93-6.49h1.08l1.43,4.89,1.49-4.89h1l1.49,4.89,1.42-4.89h1.1Z"/><path class="cls-2" d="M266.85,270.09l-.64-1.51h-3.16l-.64,1.51h-1.12l2.86-6.49h1l2.86,6.49Zm-2.22-5.22-1.17,2.76h2.34Z"/><path class="cls-2" d="M273.07,270.09l-2.31-2.58h-.94v2.58h-1V263.6h3.05a2.37,2.37,0,0,1,1.62.54,2,2,0,0,1,.06,2.78,2.33,2.33,0,0,1-1.49.58l2.34,2.59Zm-1.24-3.52a1.33,1.33,0,0,0,.87-.28.9.9,0,0,0,.33-.73.92.92,0,0,0-.33-.74,1.28,1.28,0,0,0-.87-.28h-2v2Z"/><path class="cls-2" d="M277.56,263.6a3.66,3.66,0,0,1,2.61.91,3.31,3.31,0,0,1,0,4.68,3.7,3.7,0,0,1-2.61.9h-2.27V263.6Zm0,5.55a2.6,2.6,0,0,0,1.85-.64,2.14,2.14,0,0,0,.68-1.66,2.16,2.16,0,0,0-.68-1.67,2.6,2.6,0,0,0-1.85-.64h-1.23v4.61Z"/></svg>