<svg id="Layer_1" data-name="Layer 1" xmlns="http://www.w3.org/2000/svg" viewBox="0 0 432 432"><defs><style>.cls-1{fill:#006838;}.cls-2{fill:#fff;}</style></defs><rect class="cls-1" x="-2.99" y="-2.99" width="437.98" height="437.98"/><path class="cls-2" d="M127.51,193.52a18.65,18.65,0,0,1,7.8,12l-13.59,2.76a9.18,9.18,0,0,0-3.52-5.83,10.28,10.28,0,0,0-6.29-2,8.58,8.58,0,0,0-5.45,1.63,5,5,0,0,0-2.1,4.07q0,3.69,4.53,4.7l11.66,2.6Q136,216.8,136,229.72q0,8.64-6.62,13.42t-16.53,4.78q-9.81,0-16.65-4.49a17.12,17.12,0,0,1-7.93-12.54l14.26-2.77q2,8.31,11.08,8.31a10.28,10.28,0,0,0,6.08-1.59,5,5,0,0,0,2.22-4.2,4.44,4.44,0,0,0-1.13-3.19,7.82,7.82,0,0,0-4.07-1.76L105,223.18q-15.11-3.45-15.1-16.28A15.54,15.54,0,0,1,96,194q6.12-4.77,16.11-4.78Q121.31,189.2,127.51,193.52Z"/><path class="cls-2" d="M144.2,246.66v-56.2H158v56.2Z"/><path class="cls-2" d="M202.58,246.66l-17-19.29h-4v19.29H167.77v-56.2H196.2q9.15,0,14.68,5.08a17.14,17.14,0,0,1,5.54,13.29,17.55,17.55,0,0,1-3.94,11.62,18.85,18.85,0,0,1-10.82,6.25l17.61,20Zm-7.89-30.87a9,9,0,0,0,5.92-1.84,6.11,6.11,0,0,0,2.22-4.95,6,6,0,0,0-2.22-4.87,9,9,0,0,0-5.92-1.84H181.61v13.5Z"/><path class="cls-2" d="M266.83,246.66l-3.94-10.23H239.23l-3.94,10.23H220.44l23.49-56.2H258.1l23.49,56.2Zm-15.77-40.6-7.13,18.46h14.34Z"/><path class="cls-2" d="M311,260.4c-.68,0-1.36,0-2,0a3.13,3.13,0,0,1-2.74-2c-.8-1.82-.29-2.61,1.65-2.61,2.35,0,4.7,0,7.05,0,1.19,0,1.43.5,1.27,1.53a3.39,3.39,0,0,1-3.47,3.14c-.57,0-1.15,0-1.72,0Z"/><rect class="cls-2" x="296.55" y="243.86" width="28.94" height="3.81" rx="1.72"/><rect class="cls-2" x="299.41" y="250" width="23.22" height="3.81" rx="1.54"/><path class="cls-2" d="M296.46,227.6c2.25,2.54,3.05,6.34,3.56,11h-2.43c-.6-4.59-1.6-8.34-4.34-10.88-1.36-1.25-2.61-2.5-3.74-3.71a29.48,29.48,0,0,1-1.76-44.78s0,0,0,0a33.22,33.22,0,0,1,11-6.86h0a31.84,31.84,0,0,1,3.55-1.11c-.45.18-.9.36-1.33.56a0,0,0,0,0,0,0,26.68,26.68,0,0,0-9,6.92h0a34.4,34.4,0,0,0,1.43,45.17C294.32,225.07,295.34,226.32,296.46,227.6Z"/><path class="cls-2" d="M343.75,200.81A29.84,29.84,0,0,1,333,223.55a0,0,0,0,1,0,0c-1.26,1.38-2.68,2.8-4.23,4.24-2.75,2.52-3.74,6.29-4.35,10.86H322c.51-4.6,1.31-8.4,3.57-11,1.27-1.44,2.44-2.88,3.48-4.27h0a34.33,34.33,0,0,0-.1-46,27.09,27.09,0,0,0-5.9-4.67,22.85,22.85,0,0,0-3.42-1.64,32.5,32.5,0,0,1,6.08,2.17,32.18,32.18,0,0,1,7.19,4.64A29.84,29.84,0,0,1,343.75,200.81Z"/><rect class="cls-2" x="293.28" y="237.55" width="35.48" height="3.81" rx="1.9"/><rect class="cls-2" x="308.88" y="219.59" width="4.27" height="19.9"/><path class="cls-2" d="M328.78,218.55a2.86,2.86,0,0,1-.22-.3l-.08.06a6.43,6.43,0,0,1-.68,2.85c-.24.66-.46,1.32-.68,2-.16.46-.28.92-.42,1.38,0,0,0,.06,0,.08-.12.3-1.11.59-1.41.49-.6-.19-.66-.65-.66-1.17a1.29,1.29,0,0,0-.06-.4,1.26,1.26,0,0,1,.2-1.38,1.6,1.6,0,0,0,.36-1.7c-.06-.16-.06-.34-.12-.48a.76.76,0,0,1,.12-.65,2.89,2.89,0,0,0,.24-.52c.52-.24,1-.46,1.41-.68a1.27,1.27,0,0,0,.76-1.18.54.54,0,0,0,.58-.52,2.87,2.87,0,0,1,.16-.5h.14a2.25,2.25,0,0,1,.24.42c.1.38.18.76.26,1.12a4,4,0,0,0,.08.48A.51.51,0,0,1,328.78,218.55Z"/><path class="cls-2" d="M317.42,205.37a23.56,23.56,0,0,0-13,.88c-.06.38-.12.78-.2,1.16,0,.18-.06.44-.18.54s-.12.28-.08.44a4,4,0,0,0,.9,1.35,3.61,3.61,0,0,1,1,1.54,12.83,12.83,0,0,0,.62,1.74c.1.26.16.44,0,.68a.23.23,0,0,0,0,.2,5.15,5.15,0,0,0,.28.81,1.54,1.54,0,0,1,.12.3,30.53,30.53,0,0,1,15.41-3c-.18-.2-.16-.34,0-.68.24-.6.5-1.18.74-1.78l.14-.15a4.55,4.55,0,0,0,.76-.76c.06-.08.12-.18.2-.28A20.92,20.92,0,0,0,317.42,205.37Z"/><path class="cls-2" d="M329.42,199.36a4.34,4.34,0,0,0-.48.14,5.83,5.83,0,0,1-.76.28,2.83,2.83,0,0,0-1.44.34.21.21,0,0,1-.16,0c-.29-.1-.53.08-.79.16a.6.6,0,0,1-.46,0,9.08,9.08,0,0,1-.76-.76c.36-.26.28-.47.06-.69l-.86-.86-.24-.32c0-.06-.1-.16-.16-.18a1.55,1.55,0,0,1-1.24-1.6,1.1,1.1,0,0,0-.28-.74,33.38,33.38,0,0,0-16.14,2.74,54.28,54.28,0,0,0-11.62,6.64,1.32,1.32,0,0,0,.58-.21,2.47,2.47,0,0,1,2.19-.14,1,1,0,0,0,.88-.06,10.52,10.52,0,0,1,1.32-.5.12.12,0,0,0,.08,0,1.89,1.89,0,0,1,1.41-.38c.76,0,.94.1,1.22.84.2.55.5.67,1,.51a5.4,5.4,0,0,1,.82-.14c.28,0,.34.2.42.36a24.8,24.8,0,0,1,13.71-.83,21.6,21.6,0,0,1,7.23,3.19,5.51,5.51,0,0,1,1.3-1,1,1,0,0,0,.17-.14,10,10,0,0,0,2.3-3.65,5.7,5.7,0,0,1,.32-.6,5.28,5.28,0,0,0,.44-1.92A1.6,1.6,0,0,0,329.42,199.36Z"/><path class="cls-2" d="M320.4,192.08a1.93,1.93,0,0,1-.4-.72c-.06-.14-.08-.32-.14-.46-.3-.6-.58-1.2-.88-1.78-.1-.21-.2-.41-.32-.61-.24-.4-.48-.8-.72-1.18a.85.85,0,0,0,.14-.1c.4.5.46,1.3,1.26,1.42a5.41,5.41,0,0,1,.36-1.18.81.81,0,0,0,0-.8,1.22,1.22,0,0,1-.1-.24c-.14-.38-.2-.38-.62-.32s-.82,0-1.22.06a.15.15,0,0,1-.1,0c-.26-.3-.54-.2-.84-.08a4,4,0,0,1-.52.18.93.93,0,0,1-.83,0,3.33,3.33,0,0,0-1.74-.4c-.1,0-.22-.1-.3-.14s-.14-.14-.22-.14c-.28-.06-.58,0-.66-.4,0-.06-.16-.12-.24-.14a2.16,2.16,0,0,0-.62,0,.88.88,0,0,0-.85,1.18.49.49,0,0,1-.16.4c-.18.1-.46.22-.58.14a2.62,2.62,0,0,0-1.52-.56l-.16,0-.76.34A32.12,32.12,0,0,0,291,202.54a.74.74,0,0,0,.22.1.84.84,0,0,1,.32.22c.34.28.68.6,1,.88a57.82,57.82,0,0,1,12.5-7.23,35.14,35.14,0,0,1,16.1-2.87A1.91,1.91,0,0,0,320.4,192.08Z"/><path class="cls-2" d="M306.64,185a.75.75,0,0,0-.36,0,.6.6,0,0,1-.63-.16c-.22-.16-.46-.3-.72-.48l.3-.28c.34-.33.38-.79.08-.95s-.16-.24,0-.4a4.28,4.28,0,0,0,.26-.38l-.08-.06a3.24,3.24,0,0,0-.36.2c-.18-.46-.34-.5-.76-.3a1.27,1.27,0,0,1-.64.16,2.73,2.73,0,0,0-1.14.08,3,3,0,0,1-.6,0c-.22,0-.46,0-.68,0a4.81,4.81,0,0,1-1.15.14,3.3,3.3,0,0,0-2,.6,1.38,1.38,0,0,1-1,.24,1.85,1.85,0,0,0-.74,0,.65.65,0,0,1-.6-.1c-.27-.26-.45-.18-.59.16a1.69,1.69,0,0,1-1.12,1.19,1.93,1.93,0,0,0-1,1.9.55.55,0,0,1-.14.6,1.8,1.8,0,0,1-.32.36c-.4.32-.74.76-1.32.78a.53.53,0,0,0-.26.22c-.2.34-.32.71-.71.91-.14.06-.2.26-.26.4a7.19,7.19,0,0,1-.24.7c-.36.6-.74,1.18-1.12,1.78a.76.76,0,0,0-.08.92c.2.3.4.62.18,1,0,0,0,.1,0,.16a3.3,3.3,0,0,1-.5,2.82c-.06.1-.1.26-.06.32a2.91,2.91,0,0,1,.22,1.42c0,.12.1.26.2.35.24.26.5.5.74.76s.34.42.52.62a1.6,1.6,0,0,1,.26.26A34.29,34.29,0,0,1,307,185.07Z"/><path class="cls-2" d="M323.13,217.21v-2.12c0-.18-.28-.89-.48-1.59a28.28,28.28,0,0,0-16.55,3.67,7.92,7.92,0,0,0-.26.92,3.05,3.05,0,0,0,.24,2.63,14.12,14.12,0,0,1,1,2,1.61,1.61,0,0,1,.18.52c.06.56.1,1.1.16,1.64a3.4,3.4,0,0,0,.7,2.15c.66.72.76,1.74,1.26,2.56.1.16.2.46-.18.55a.23.23,0,0,0,0,.2c.2.26.38.52.58.76s.18.24.28.34.3,0,.44,0L312,231s.08,0,.12,0c.46,0,.9.22,1.36,0,.26-.14.6-.1.86-.26a.15.15,0,0,1,.08,0,7.09,7.09,0,0,0,1.95-1.71c.48-.56.68-1.3,1.34-1.72a9.75,9.75,0,0,0,.44-1.62c0-.5,0-.5.42-.72l.36-.11c.34-.16.76-.24.84-.68a4.05,4.05,0,0,0,0-1.1c-.06-.4-.22-.78-.28-1.16a.82.82,0,0,1,.1-.66,10.45,10.45,0,0,1,1.32-1.34,5.92,5.92,0,0,1,1.07-.61,2.23,2.23,0,0,0,1.14-1.38A1.83,1.83,0,0,0,323.13,217.21Z"/><path class="cls-2" d="M92.94,254.56a2.11,2.11,0,0,1,.84,1.34l-1,.21a1.25,1.25,0,0,0-.5-.82,1.56,1.56,0,0,0-1-.32,1.39,1.39,0,0,0-.92.28A.84.84,0,0,0,90,256a.69.69,0,0,0,.2.53,1.24,1.24,0,0,0,.62.28l1.4.3c1.12.25,1.67.84,1.67,1.78a1.74,1.74,0,0,1-.68,1.44,2.85,2.85,0,0,1-1.81.54,3.14,3.14,0,0,1-1.82-.51,1.9,1.9,0,0,1-.86-1.42l1.1-.23a1.44,1.44,0,0,0,.56.93,1.9,1.9,0,0,0,1.12.31,1.65,1.65,0,0,0,1-.27.89.89,0,0,0,.36-.74.77.77,0,0,0-.2-.56A1.52,1.52,0,0,0,92,258l-1.41-.29c-1.09-.25-1.64-.84-1.64-1.76a1.68,1.68,0,0,1,.66-1.39,2.66,2.66,0,0,1,1.72-.53A2.72,2.72,0,0,1,92.94,254.56Z"/><path class="cls-2" d="M100,260.7l-.64-1.52H96.2l-.64,1.52H94.44l2.86-6.5h1l2.85,6.5Zm-2.22-5.23-1.17,2.77H99Z"/><path class="cls-2" d="M104.41,260.7h-1l-2.82-6.5h1.14l2.17,5.09,2.17-5.09h1.15Z"/><path class="cls-2" d="M111.31,260.7h-1l-2.82-6.5h1.14l2.18,5.09L113,254.2h1.15Z"/><path class="cls-2" d="M118.05,260.7h-1v-2.15l-2.62-4.35h1.15l2,3.26,2-3.26h1.19l-2.66,4.33Z"/><path class="cls-2" d="M124,260.7v-6.5h1v6.5Z"/><path class="cls-2" d="M132.41,260.7h-.88L127.6,256v4.66h-1v-6.5h.88l3.91,4.74V254.2h1Z"/><path class="cls-2" d="M133.93,260.7v-6.5h1v6.5Z"/><path class="cls-2" d="M139.28,255.14v5.56h-1.05v-5.56H136v-.94h5.61v.94Z"/><path class="cls-2" d="M142.55,260.7v-6.5h1v6.5Z"/><path class="cls-2" d="M150,260.7l-.64-1.52h-3.16l-.64,1.52H144.4l2.86-6.5h1l2.86,6.5Zm-2.22-5.23-1.17,2.77h2.35Z"/><path class="cls-2" d="M154.1,255.14v5.56h-1v-5.56h-2.28v-.94h5.61v.94Z"/><path class="cls-2" d="M157.37,260.7v-6.5h1v6.5Z"/><path class="cls-2" d="M163.12,260.7h-1l-2.82-6.5h1.15l2.17,5.09,2.17-5.09h1.15Z"/><path class="cls-2" d="M171.66,260.7h-4.83v-6.5h4.82v.94h-3.79V257h3.5v.93h-3.5v1.85h3.8Z"/><path class="cls-2" d="M179.67,260.7l-2.32-2.59h-.94v2.59h-1v-6.5h3.05a2.36,2.36,0,0,1,1.61.54,1.93,1.93,0,0,1,.06,2.78,2.21,2.21,0,0,1-1.49.58l2.35,2.6Zm-1.24-3.53a1.27,1.27,0,0,0,.86-.28.89.89,0,0,0,.33-.73.9.9,0,0,0-.33-.73,1.28,1.28,0,0,0-.86-.29h-2v2Z"/><path class="cls-2" d="M186.72,260.7h-4.84v-6.5h4.83v.94h-3.79V257h3.5v.93h-3.5v1.85h3.8Z"/><path class="cls-2" d="M192.37,259.44a2.2,2.2,0,0,0,.79-1.22l1,.21a2.91,2.91,0,0,1-1.12,1.76,3.3,3.3,0,0,1-2,.64,3.36,3.36,0,0,1-3.38-3.38,3.36,3.36,0,0,1,3.38-3.38,3.35,3.35,0,0,1,2,.63,2.93,2.93,0,0,1,1.13,1.69l-1,.29a2.2,2.2,0,0,0-.79-1.22,2.28,2.28,0,0,0-1.36-.41,2.24,2.24,0,0,0-1.66.69,2.52,2.52,0,0,0,0,3.42,2.24,2.24,0,0,0,1.66.69A2.22,2.22,0,0,0,192.37,259.44Z"/><path class="cls-2" d="M200.88,255.06a3.3,3.3,0,0,1,1,2.4,3.4,3.4,0,0,1-5.79,2.39,3.22,3.22,0,0,1-1-2.39,3.39,3.39,0,0,1,5.79-2.4Zm-.74,4.11a2.53,2.53,0,0,0,0-3.43,2.26,2.26,0,0,0-1.67-.69,2.23,2.23,0,0,0-1.66.69,2.53,2.53,0,0,0,0,3.43,2.26,2.26,0,0,0,1.66.68A2.29,2.29,0,0,0,200.14,259.17Z"/><path class="cls-2" d="M209.44,257c0,.24,0,.39,0,.45a3.33,3.33,0,0,1-.92,2.41,3.11,3.11,0,0,1-2.35,1,3.35,3.35,0,0,1-3.41-3.38,3.35,3.35,0,0,1,3.38-3.38,3.73,3.73,0,0,1,1.91.5,2.74,2.74,0,0,1,1.18,1.42l-.94.33a2.4,2.4,0,0,0-3.8-.58,2.35,2.35,0,0,0-.68,1.71,2.34,2.34,0,0,0,2.39,2.4,2.15,2.15,0,0,0,2.22-1.89h-2.57V257Z"/><path class="cls-2" d="M216.53,260.7h-.88L211.72,256v4.66h-1v-6.5h.88l3.91,4.74V254.2h1.05Z"/><path class="cls-2" d="M218.06,260.7v-6.5h1v6.5Z"/><path class="cls-2" d="M223.4,255.14v5.56h-1v-5.56h-2.28v-.94h5.61v.94Z"/><path class="cls-2" d="M226.67,260.7v-6.5h1v6.5Z"/><path class="cls-2" d="M234.73,255.06a3.3,3.3,0,0,1,1,2.4,3.4,3.4,0,0,1-5.79,2.39,3.22,3.22,0,0,1-1-2.39,3.39,3.39,0,0,1,5.79-2.4Zm-.74,4.11a2.53,2.53,0,0,0,0-3.43,2.26,2.26,0,0,0-1.67-.69,2.23,2.23,0,0,0-1.66.69,2.53,2.53,0,0,0,0,3.43,2.26,2.26,0,0,0,1.66.68A2.29,2.29,0,0,0,234,259.17Z"/><path class="cls-2" d="M242.77,260.7h-.88L238,256v4.66h-1v-6.5h.88l3.91,4.74V254.2h1.05Z"/><path class="cls-2" d="M251.53,260.7l-.64-1.52h-3.16l-.64,1.52H246l2.86-6.5h1l2.86,6.5Zm-2.22-5.23-1.17,2.77h2.34Z"/><path class="cls-2" d="M259.53,260.7h-1.1L257,255.87l-1.46,4.83H254.4l-1.93-6.5h1.08l1.43,4.9,1.49-4.9h1l1.49,4.9,1.42-4.9h1.1Z"/><path class="cls-2" d="M266.85,260.7l-.64-1.52h-3.16l-.64,1.52h-1.12l2.86-6.5h1l2.86,6.5Zm-2.22-5.23-1.17,2.77h2.34Z"/><path class="cls-2" d="M273.07,260.7l-2.31-2.59h-.94v2.59h-1v-6.5h3.05a2.37,2.37,0,0,1,1.62.54,2,2,0,0,1,.06,2.78,2.23,2.23,0,0,1-1.49.58l2.34,2.6Zm-1.24-3.53a1.28,1.28,0,0,0,.87-.28.89.89,0,0,0,.33-.73.9.9,0,0,0-.33-.73,1.29,1.29,0,0,0-.87-.29h-2v2Z"/><path class="cls-2" d="M277.56,254.2a3.7,3.7,0,0,1,2.61.91,3.31,3.31,0,0,1,0,4.68,3.7,3.7,0,0,1-2.61.91h-2.27v-6.5Zm0,5.56a2.65,2.65,0,0,0,1.85-.64,2.39,2.39,0,0,0,0-3.34,2.65,2.65,0,0,0-1.85-.64h-1.23v4.62Z"/></svg>